<svg width="25" height="25" viewBox="0 0 25 25" fill="none" xmlns="http://www.w3.org/2000/svg">
<mask id="mask0_93_28" style="mask-type:alpha" maskUnits="userSpaceOnUse" x="0" y="0" width="25" height="25">
<rect x="0.45105" y="0.800171" width="24" height="24" fill="#D9D9D9"/>
</mask>
<g mask="url(#mask0_93_28)">
<path d="M20.0511 21.8001L13.701 15.4501L15.1011 14.0501L21.451 20.4001L20.0511 21.8001ZM6.40105 21.1001C5.40105 20.1001 4.65938 18.9751 4.17605 17.7251C3.69272 16.4751 3.45105 15.2001 3.45105 13.9001C3.45105 12.6001 3.69272 11.3335 4.17605 10.1001C4.65938 8.86681 5.40105 7.75015 6.40105 6.75015C7.40105 5.75015 8.52188 5.00431 9.76355 4.51265C11.0052 4.02098 12.276 3.77515 13.576 3.77515C14.876 3.77515 16.1469 4.02098 17.3885 4.51265C18.6302 5.00431 19.7511 5.75015 20.7511 6.75015L6.40105 21.1001ZM6.60105 18.0501L7.95105 16.7001C7.68438 16.3501 7.43022 15.9918 7.18855 15.6251C6.94688 15.2585 6.72605 14.8918 6.52605 14.5251C6.32605 14.1585 6.15105 13.7918 6.00105 13.4251C5.85105 13.0585 5.71772 12.7001 5.60105 12.3501C5.41772 13.3335 5.40522 14.3168 5.56355 15.3001C5.72188 16.2835 6.06772 17.2001 6.60105 18.0501ZM9.40105 15.3001L14.951 9.70015C14.2344 9.15015 13.5136 8.70431 12.7886 8.36265C12.0636 8.02098 11.3844 7.78765 10.751 7.66265C10.1177 7.53765 9.54688 7.51681 9.03855 7.60015C8.53022 7.68348 8.13438 7.86681 7.85105 8.15015C7.56772 8.45015 7.38438 8.85431 7.30105 9.36265C7.21772 9.87098 7.23855 10.446 7.36355 11.0876C7.48855 11.7293 7.72188 12.4085 8.06355 13.1251C8.40522 13.8418 8.85105 14.5668 9.40105 15.3001ZM16.3511 8.30015L17.751 6.95015C16.8677 6.41681 15.9344 6.06681 14.951 5.90015C13.9677 5.73348 12.9844 5.75015 12.001 5.95015C12.3677 6.06681 12.7344 6.20015 13.1011 6.35015C13.4677 6.50015 13.8344 6.67098 14.201 6.86265C14.5677 7.05431 14.9302 7.27098 15.2886 7.51265C15.6469 7.75431 16.0011 8.01681 16.3511 8.30015Z" fill="#C30335"/>
</g>
</svg>
