<svg width="25" height="25" viewBox="0 0 25 25" fill="none" xmlns="http://www.w3.org/2000/svg">
<mask id="mask0_93_22" style="mask-type:alpha" maskUnits="userSpaceOnUse" x="0" y="0" width="25" height="25">
<rect x="0.0305176" y="0.445923" width="24" height="24" fill="#D9D9D9"/>
</mask>
<g mask="url(#mask0_93_22)">
<path d="M2.03052 19.4459V16.4459H17.0305V19.4459H2.03052ZM18.0305 19.4459V16.4459H19.5305V19.4459H18.0305ZM20.5305 19.4459V16.4459H22.0305V19.4459H20.5305ZM18.0305 15.4459V14.1459C18.0305 13.4959 17.8389 13.0001 17.4555 12.6584C17.0722 12.3168 16.6139 12.1459 16.0805 12.1459H14.5305C13.5972 12.1459 12.8055 11.8209 12.1555 11.1709C11.5055 10.5209 11.1805 9.72926 11.1805 8.79592C11.1805 7.86259 11.5055 7.07092 12.1555 6.42092C12.8055 5.77092 13.5972 5.44592 14.5305 5.44592V6.94592C14.0305 6.94592 13.5972 7.12092 13.2305 7.47092C12.8639 7.82092 12.6805 8.26259 12.6805 8.79592C12.6805 9.32926 12.8639 9.77092 13.2305 10.1209C13.5972 10.4709 14.0305 10.6459 14.5305 10.6459H16.0805C17.0139 10.6459 17.8222 10.9459 18.5055 11.5459C19.1889 12.1459 19.5305 12.8959 19.5305 13.7959V15.4459H18.0305ZM20.5305 15.4459V13.1959C20.5305 12.0959 20.1472 11.1459 19.3805 10.3459C18.6139 9.54592 17.6639 9.14592 16.5305 9.14592V7.64592C17.0305 7.64592 17.4639 7.46259 17.8305 7.09592C18.1972 6.72926 18.3805 6.29592 18.3805 5.79592C18.3805 5.29592 18.1972 4.86259 17.8305 4.49592C17.4639 4.12926 17.0305 3.94592 16.5305 3.94592V2.44592C17.4639 2.44592 18.2555 2.77092 18.9055 3.42092C19.5555 4.07092 19.8805 4.86259 19.8805 5.79592C19.8805 6.27926 19.7889 6.71676 19.6055 7.10842C19.4222 7.50009 19.1805 7.86259 18.8805 8.19592C19.8139 8.62926 20.5722 9.29592 21.1555 10.1959C21.7389 11.0959 22.0305 12.0959 22.0305 13.1959V15.4459H20.5305Z" fill="#C30335"/>
</g>
</svg>
