<svg width="454" height="30" viewBox="0 0 454 30" fill="none" xmlns="http://www.w3.org/2000/svg">
<g clip-path="url(#clip0_31_205)">
<path d="M173.554 12.979C172.391 12.7124 170.464 12.3178 168.919 12.0051C168.598 11.9358 168.289 11.8708 167.977 11.8099C167.45 11.7028 166.963 11.6 166.539 11.4929C163.489 10.8863 161.597 10.1957 161.597 8.63187C161.6 8.31278 161.667 7.99753 161.794 7.70475C161.921 7.41197 162.106 7.14761 162.336 6.9274C163.596 5.8367 165.23 5.27693 166.893 5.36571H167.192C171.255 5.42328 175.172 6.89096 178.273 9.51768L178.613 9.82202L181.23 4.73595L180.976 4.55966C177.135 1.60002 172.419 0.00201016 167.569 0.0172544C163.869 -0.052996 160.283 1.2994 157.551 3.79557C156.804 4.5193 156.218 5.39097 155.828 6.35465C155.438 7.31833 155.254 8.3528 155.288 9.39174C155.443 15.414 162.11 17.0365 169.593 18.2897C172.786 18.8229 175.051 19.3393 175.179 21.2074C175.175 21.5308 175.107 21.8501 174.978 22.1468C174.849 22.4434 174.663 22.7114 174.429 22.935C172.722 24.265 170.575 24.9002 168.419 24.7129H168.111C164.121 24.4578 160.314 22.9464 157.236 20.3951L156.877 20.076L154.429 25.4875L154.675 25.6533C158.678 28.3292 163.349 29.8347 168.161 30.0005C170.135 30.1544 172.119 29.9146 173.999 29.2952C175.879 28.6757 177.617 27.689 179.112 26.3922C179.878 25.6288 180.476 24.7149 180.87 23.7083C181.264 22.7016 181.444 21.6242 181.4 20.5441C181.291 16.5202 178.793 14.1146 173.548 12.9874" fill="white"/>
<path d="M135.452 0.0174794C133.242 -0.0671837 131.04 0.311536 128.986 1.12928C126.932 1.94703 125.071 3.18568 123.525 4.76558C120.822 7.52711 119.31 11.2393 119.316 15.1036C119.31 17.1421 119.741 19.1582 120.578 21.0166C121.416 22.875 122.642 24.5326 124.173 25.8781C127.315 28.5397 131.299 30.0004 135.417 30.0004C139.535 30.0004 143.519 28.5397 146.661 25.8781C148.201 24.5399 149.433 22.8834 150.271 21.0229C151.11 19.1623 151.534 17.142 151.516 15.1015C151.544 11.2487 150.06 7.53868 147.383 4.76769C145.83 3.19517 143.968 1.96112 141.914 1.14325C139.861 0.325374 137.661 -0.0586413 135.452 0.0153654M142.311 21.68C140.463 23.4617 137.995 24.4572 135.428 24.4572C132.86 24.4572 130.392 23.4617 128.544 21.68C127.657 20.8274 126.951 19.8062 126.465 18.6764C125.979 17.5467 125.725 16.3311 125.716 15.1015C125.754 12.545 126.796 10.106 128.617 8.31148C130.438 6.51694 132.892 5.51096 135.448 5.51096C138.005 5.51096 140.459 6.51694 142.28 8.31148C144.101 10.106 145.143 12.545 145.181 15.1015C145.173 16.3359 144.914 17.5559 144.42 18.6871C143.926 19.8184 143.207 20.8373 142.307 21.682" fill="white"/>
<path d="M112.072 1.1027L105.926 19.9818L99.8007 1.1027H93.5518L87.4015 19.9524L81.2659 1.1027H74.7168L84.2886 28.6783L84.4313 28.9155H90.4556L96.6773 10.7081L102.899 28.9155H108.97L118.6 1.10059L112.072 1.1027Z" fill="white"/>
<path d="M42.2735 6.21817H53.9549V28.9155H60.3907V6.21817H72.072V1.10059H42.2651L42.2735 6.21817Z" fill="white"/>
<path d="M12.7856 1.10254L-0.00195312 28.9153H6.55766L9.60551 22.0261H22.2923L25.4116 28.9153H32.0257L19.2445 1.10254H12.7856ZM11.9271 16.8939L15.9846 7.97072L20.0443 16.8939H11.9271Z" fill="white"/>
<path d="M421.065 20.3445C419.895 21.6608 418.455 22.7097 416.844 23.4196C415.232 24.1296 413.486 24.484 411.726 24.4587H411.629C409.056 24.496 406.568 23.5315 404.693 21.769C402.817 20.0064 401.7 17.5838 401.577 15.0129C401.553 13.7874 401.775 12.5696 402.23 11.4317C402.686 10.2937 403.365 9.25874 404.228 8.38817C406.2 6.50443 408.835 5.47226 411.562 5.51456C413.33 5.50223 415.082 5.84942 416.711 6.53502C418.341 7.22062 419.814 8.2303 421.041 9.50279L421.356 9.80925L424.406 4.95623L424.169 4.75886C420.668 1.69624 416.176 0.00447432 411.524 -0.00390625C407.576 0.0595843 403.761 1.4296 400.674 3.89195C398.974 5.23184 397.601 6.9414 396.66 8.89084C395.72 10.8403 395.235 12.9784 395.244 15.143C395.244 24.3412 403.185 29.5657 411.033 29.9751C411.327 29.9905 411.619 29.9982 411.91 29.9982C416.586 29.9757 421.076 28.1675 424.463 24.9436L424.69 24.7337L421.358 20.0003L421.065 20.3445Z" fill="white"/>
<path d="M340.607 1.10254H334.425V28.9174H358.657V23.6697H340.605L340.607 1.10254Z" fill="white"/>
<path d="M200.823 0.0169901C198.612 -0.0731259 196.407 0.303059 194.352 1.12111C192.296 1.93915 190.436 3.18073 188.892 4.76509C186.196 7.53043 184.689 11.241 184.693 15.1031C184.687 17.1417 185.117 19.1581 185.954 21.0167C186.792 22.8752 188.019 24.5327 189.551 25.8776C192.675 28.5878 196.687 30.055 200.823 30.0002C204.958 30.0321 208.964 28.5671 212.103 25.8755C213.627 24.5256 214.845 22.8668 215.677 21.0094C216.51 19.1519 216.937 17.1385 216.931 15.1031C216.935 11.2477 215.439 7.54193 212.76 4.76932C211.203 3.1999 209.34 1.96794 207.286 1.15032C205.233 0.332694 203.032 -0.0530766 200.823 0.0169901ZM207.664 21.6815C206.766 22.5764 205.698 23.283 204.523 23.7598C203.349 24.2367 202.09 24.4743 200.823 24.4587C198.237 24.4859 195.746 23.4872 193.896 21.6815C193.009 20.8289 192.302 19.8075 191.816 18.6773C191.33 17.5471 191.075 16.3311 191.066 15.101C191.104 12.5445 192.146 10.1055 193.967 8.31099C195.788 6.51645 198.242 5.51047 200.799 5.51047C203.355 5.51047 205.809 6.51645 207.63 8.31099C209.452 10.1055 210.493 12.5445 210.531 15.101C210.523 16.335 210.265 17.5546 209.772 18.6858C209.278 19.8169 208.563 20.8361 207.664 21.6815Z" fill="white"/>
<path d="M435.987 23.7762V16.7506H452.379V11.589H435.991V6.14611H452.914V0.99707H429.805V28.9148H453.401V23.7762H435.987Z" fill="white"/>
<path d="M375.347 1.10254L362.498 28.9153H369.074L372.129 22.0261H384.805L387.954 28.9153H394.545L381.753 1.10254H375.347ZM374.448 16.8939L378.504 7.96861L382.55 16.8939H374.448Z" fill="white"/>
<path d="M326.062 2.74136C323.625 1.4463 320.878 0.849932 318.123 1.01805H302.38V28.9525H308.927V20.0735H318.065C320.802 20.222 323.527 19.6196 325.947 18.3312C327.157 17.4279 328.141 16.2567 328.823 14.9093C329.505 13.5619 329.866 12.075 329.877 10.565C329.888 9.05494 329.55 7.56279 328.888 6.20546C328.226 4.84814 327.259 3.66248 326.062 2.74136ZM318.873 14.8363H308.925V6.29931H318.873C320 6.28913 321.1 6.64814 322.005 7.32156C322.485 7.70992 322.866 8.20701 323.116 8.77166C323.366 9.3363 323.478 9.9523 323.442 10.5688C323.44 11.1544 323.318 11.7334 323.084 12.2701C322.85 12.8068 322.508 13.2899 322.081 13.6898C321.653 14.0896 321.148 14.3978 320.596 14.5954C320.045 14.7929 319.459 14.8755 318.875 14.8383" fill="white"/>
<path d="M237.639 15.4555L229.158 1.10198H221.684V28.9147H227.861V10.3211L235.98 23.5873H239.387L247.435 10.3631V28.9085H253.661V1.0957H246.161L237.639 15.4555Z" fill="white"/>
<path d="M266.058 16.7506H282.445V11.589H266.058V6.14611H282.92V0.99707H259.874V28.9148H283.47V23.7762H266.047L266.058 16.7506Z" fill="white"/>
</g>
<defs>
<clipPath id="clip0_31_205">
<rect width="453.401" height="30" fill="white"/>
</clipPath>
</defs>
</svg>
